<svg xmlns="http://www.w3.org/2000/svg" width="153" height="34" fill="#FFFFFF" viewBox="0 0 153 34" aria-hidden="true"><path fill-rule="evenodd" d="M5.087 6.185a51.343 51.343 0 0 1 21.918 0l.818.18a1.612 1.612 0 0 1 1.032 2.413L17.422 27.514a1.612 1.612 0 0 1-2.752 0L3.237 8.777A1.612 1.612 0 0 1 4.27 6.364l.818-.179Zm21.623 1.35a49.962 49.962 0 0 0-21.328 0l-.818.179a.23.23 0 0 0-.148.344l2.692 4.412a42.677 42.677 0 0 1 17.875 0l2.693-4.412a.23.23 0 0 0-.147-.344l-.819-.179Zm34.472-2.007c1.032-1.099 2.876-.368 2.877 1.14v19.948c0 .919-.745 1.664-1.664 1.664H43.668c-1.458 0-2.212-1.741-1.214-2.804L61.182 5.528Zm1.45 1.14a.238.238 0 0 0-.411-.163l-3.156 3.36v16.988h3.33a.237.237 0 0 0 .237-.237V6.667Z" clip-rule="evenodd"></path><path d="M92.25 5a.5.5 0 0 1 .5.5v.75h2.5A2.25 2.25 0 0 1 97.5 8.5v19a2.25 2.25 0 0 1-2.25 2.25h-11A2.25 2.25 0 0 1 82 27.5v-19a2.25 2.25 0 0 1 2.25-2.25h2.5V5.5a.5.5 0 0 1 .5-.5h5Zm-8 2.75a.75.75 0 0 0-.75.75v2.75H96V8.5a.75.75 0 0 0-.75-.75h-11Zm32.915 16.449c-.976 0-1.837-.173-2.585-.519-.744-.35-1.324-.83-1.741-1.441-.416-.616-.622-1.317-.617-2.103a3.866 3.866 0 0 1 .362-1.704 3.71 3.71 0 0 1 1.008-1.314c.431-.355.912-.58 1.442-.675v-.085a2.809 2.809 0 0 1-1.662-1.172c-.412-.606-.615-1.295-.611-2.067-.004-.738.183-1.399.561-1.981.379-.583.9-1.042 1.563-1.378.668-.336 1.428-.504 2.28-.504.843 0 1.595.168 2.258.504a3.953 3.953 0 0 1 1.563 1.378 3.57 3.57 0 0 1 .582 1.981 3.602 3.602 0 0 1-.632 2.067 2.806 2.806 0 0 1-1.641 1.172v.085a3 3 0 0 1 1.421.675c.421.35.757.788 1.008 1.314a3.95 3.95 0 0 1 .384 1.704 3.679 3.679 0 0 1-.639 2.103c-.417.61-.997 1.091-1.74 1.441-.739.346-1.594.519-2.564.519Zm0-1.563c.658 0 1.226-.106 1.704-.32.479-.212.848-.513 1.108-.901.261-.389.393-.843.398-1.364a2.621 2.621 0 0 0-.426-1.456 2.89 2.89 0 0 0-1.144-.994c-.478-.242-1.025-.362-1.64-.362-.62 0-1.174.12-1.662.362a2.896 2.896 0 0 0-1.144.994 2.567 2.567 0 0 0-.404 1.456c-.005.521.12.976.376 1.364.26.388.632.689 1.115.902.483.213 1.056.32 1.719.32Zm0-6.903c.521 0 .982-.104 1.385-.313.407-.208.727-.5.959-.873.232-.374.35-.812.355-1.314-.005-.492-.121-.921-.348-1.286a2.265 2.265 0 0 0-.945-.852c-.402-.203-.871-.305-1.406-.305-.545 0-1.021.102-1.428.305a2.199 2.199 0 0 0-.944.852c-.223.365-.332.794-.327 1.286-.005.502.106.94.334 1.314.232.374.551.665.959.873.407.209.875.313 1.406.313Zm12.409 8.466c-1.07 0-1.981-.291-2.734-.874-.753-.587-1.328-1.437-1.726-2.55-.398-1.117-.597-2.466-.597-4.048 0-1.572.199-2.914.597-4.027.402-1.117.98-1.97 1.733-2.556.758-.592 1.667-.888 2.727-.888 1.061 0 1.968.296 2.72.887.758.588 1.336 1.44 1.733 2.557.403 1.113.604 2.455.604 4.027 0 1.582-.199 2.931-.597 4.049-.397 1.112-.973 1.962-1.725 2.55-.753.582-1.665.873-2.735.873Zm0-1.563c1.061 0 1.885-.511 2.472-1.534.587-1.023.88-2.48.88-4.375 0-1.26-.134-2.332-.404-3.217-.265-.886-.649-1.56-1.151-2.024-.497-.464-1.096-.696-1.797-.696-1.051 0-1.872.518-2.464 1.555-.592 1.032-.888 2.493-.888 4.382 0 1.26.133 2.33.398 3.21.265.881.646 1.551 1.143 2.01.502.46 1.106.69 1.811.69Zm15.171-1.363v-.767c0-.53.109-1.016.326-1.456.223-.445.545-.8.966-1.066.426-.27.943-.405 1.549-.405.615 0 1.131.136 1.548.405.417.265.731.62.944 1.066.214.44.32.925.32 1.456v.767c0 .53-.109 1.018-.327 1.463a2.58 2.58 0 0 1-.951 1.065c-.417.265-.928.398-1.534.398-.616 0-1.134-.133-1.556-.398a2.635 2.635 0 0 1-.959-1.065 3.294 3.294 0 0 1-.326-1.463Zm1.449-.767v.767c0 .44.104.835.312 1.186.208.346.568.518 1.08.518.497 0 .847-.172 1.051-.518.208-.35.312-.746.312-1.186v-.767c0-.44-.099-.834-.298-1.18-.199-.35-.554-.525-1.065-.525-.498 0-.855.175-1.073.526a2.2 2.2 0 0 0-.319 1.179Zm-8.694-7.557v-.767c0-.53.109-1.016.327-1.456.223-.445.545-.8.966-1.065.426-.27.942-.405 1.548-.405.616 0 1.132.135 1.549.405.416.265.731.62.944 1.065.213.44.32.925.32 1.456v.767a3.28 3.28 0 0 1-.327 1.463c-.213.44-.53.795-.952 1.065-.416.265-.928.398-1.534.398-.615 0-1.134-.133-1.555-.398a2.628 2.628 0 0 1-.959-1.065 3.28 3.28 0 0 1-.327-1.463Zm1.449-.767v.767c0 .44.104.836.313 1.186.208.346.568.518 1.079.518.497 0 .848-.172 1.051-.518a2.27 2.27 0 0 0 .313-1.186v-.767c0-.44-.1-.834-.298-1.18-.199-.35-.554-.525-1.066-.525-.497 0-.854.175-1.072.526-.213.345-.32.739-.32 1.179ZM138.04 24l10-14.545h1.619l-10 14.545h-1.619Z"></path></svg>