<svg xmlns="http://www.w3.org/2000/svg" width="602" height="602">
  <g fill="#e0e2e2" color="#000" transform="translate(0 -.0000163)">
    <path d="M138.68423 1.0000566h324.63155C539.59275 1.0000566 601 62.407207 601 138.68428v324.6315C601 539.59289 539.59275 601 463.31578 601H138.68423C62.407103 601 1 539.59289 1 463.31578v-324.6315C1 62.407207 62.407103 1.0000566 138.68423 1.0000566z" overflow="visible" style="marker:none"/>
    <path d="M140.12566 3.6641946h321.74869c75.59959 0 136.46151 60.8618264 136.46151 136.4615154v321.74864c0 75.59972-60.86192 136.46151-136.46151 136.46151H140.12566c-75.599742 0-136.4615218-60.86179-136.4615218-136.46151V140.12571c0-75.599689 60.8617798-136.4615154 136.4615218-136.4615154z" overflow="visible" style="marker:none"/>
  </g>
  <path fill="#9a9a9a" d="M154.39239 598.87745c-31.49915-.93671-45.58822-2.78822-63.6126-8.3596-25.716918-7.94919-49.507638-25.42866-65.18832-47.89498-4.813899-6.89707-12.041237-20.32428-12.041237-22.37067 0-2.66738 42.215603-21.18959 69.746831-30.60155 9.955153-3.40333 28.362706-8.94615 33.537416-10.09863 3.79199-.84457 21.24915-5.89492 30.72919-8.88997 14.04469-4.43719 21.63756-8.7924 24.33019-13.95576 1.20586-2.31226 4.09578-16.37114 5.56644-27.07955.4156-3.02593 1.14942-8.16789 1.63077-11.42657 1.5036-10.17933 1.24511-12.32254-1.8884-15.65865-11.06549-11.78105-15.87633-23.09998-18.52688-43.59025-1.31941-10.19918-4.96149-28.18242-6.2494-30.85709-.57019-1.18416-3.01273-3.20493-5.42796-4.49057-6.45373-3.43551-9.18111-8.15782-10.87114-18.82277-1.23975-7.82413-2.55685-12.44122-7.15453-25.08088-3.14957-8.65859-4.6488-17.24504-4.32991-24.79698.26181-6.19919.5766-7.41233 2.43469-9.38363 1.87627-1.99057 2.58296-2.20367 5.85152-1.7645 3.04041.40852 3.63032.27417 3.23878-.73757-2.67267-6.90633-6.44724-38.97676-8.83252-75.04518-.81381-12.30583 2.03693-25.94482 8.08512-38.68278 4.93785-10.39957 10.70758-16.5591 17.93775-19.14968 2.21198-.79257 5.1741-1.87231 6.58253-2.39944 1.40841-.52713 4.95661-3.32687 7.88494-6.22163 11.22426-11.095669 20.78087-16.878792 36.21273-21.914053 5.32315-1.736881 13.58215-4.628921 18.35345-6.426762 11.82468-4.455609 19.50527-5.986517 30.59006-6.097262 14.74429-.147301 23.94717 1.963873 45.66699 10.476188 6.80738 2.667911 16.41025 6.039868 21.33972 7.493233 18.56437 5.473378 29.41246 12.636365 34.99469 23.106986 1.56428 2.93404 4.33623 7.57985 6.16 10.324 6.1321 9.22693 7.42076 12.69391 9.62865 25.90469 3.87846 23.2063 1.94388 54.57519-5.29838 85.91091-2.96326 12.82141-3.13525 13.96581-2.09915 13.96581.49498 0 1.13747-.38088 1.42762-.8464.89481-1.43566 4.27425-.9375 6.29325.92769 2.92269 2.70005 3.7289 5.5929 3.75135 13.46132.0248 8.56872-1.7933 17.40784-6.17921 30.04766-1.77691 5.1208-3.65824 12.48845-4.18071 16.37256-1.28311 9.53802-4.84283 16.29369-9.80621 18.61027-1.94473.90766-4.19316 2.37227-4.99638 3.25465-2.95529 3.2462-5.00733 12.08636-9.68748 41.73249-2.30989 14.63217-6.44665 23.72792-15.02017 33.02615l-4.29244 4.65528.42398 11.00336c.59376 15.40766 3.55033 34.43568 6.20098 39.90849 4.59503 9.48757 14.5344 14.00286 51.85688 23.55791 44.07473 11.28369 64.36393 18.34648 103.59794 36.06294 1.96951.88936 6.00306 1.61701 6.49831 1.61701l.094 77.41788c-2.03103 1.24473-19.4865 3.10003-44.74352 3.82672-31.46617.9053-259.62707.88893-290.22019-.0208z"/>
  <path fill="#c9c8c4" d="M486.0912 5.7880779c1.12225.1994023 2.23967.4124319 3.35208.6389126 4.44966.9059231 8.81922 2.0270663 13.09743 3.3521688 4.27822 1.3251027 8.46508 2.8541647 12.54933 4.5759247 4.08425 1.72176 8.06588 3.636219 11.93365 5.732116 3.86776 2.095897 7.62165 4.373231 11.25041 6.820743 3.62876 2.447512 7.13238 5.065201 10.49961 7.841806s6.59806 5.712127 9.68124 8.795304c3.08318 3.083177 6.0187 6.31401 8.79531 9.681238 2.77661 3.367228 5.3943 6.87085 7.84181 10.499607 2.44751 3.628757 4.72485 7.382648 6.82075 11.250412 2.0959 3.867765 4.01036 7.849403 5.73212 11.933653 1.72176 4.084251 3.25083 8.271114 4.57593 12.54933 1.32511 4.278207 2.44625 8.647777 3.35217 13.097437.90593 4.44966 1.59663 8.97941 2.06086 13.57799.46422 4.59858.70196 9.26599.70196 13.99097v9.17076L486.0912 149.296V79.591061z" color="#000" overflow="visible" style="marker:none"/>
  <path fill="#676362" d="m527.4546 109.35821 11.8899-30.92019h4.3941l12.6653 30.92019h-4.6849l-3.5864-9.36975h-12.9238l-3.3923 9.36975zm8.9175-12.69763h10.5005l-3.2309-8.56202c-1.0771-2.86476-1.8094-4.99718-2.197-6.39729-.3878 1.98167-.9479 3.94179-1.6802 5.88034z" font-family="BrowalliaUPC" font-size="40" font-weight="400" letter-spacing="0" style="text-align:center;line-height:50%;-inkscape-font-specification:BrowalliaUPC" text-anchor="middle" word-spacing="0"/>
  <path fill="#4fc9f8" d="M598.33586 149.29645v149.70356H486.0912V149.296z" color="#000" overflow="visible" style="marker:none" transform="matrix(1 0 0 1.00167 0 -.49931864)"/>
  <path fill="#1c627a" d="M530.5056 242.35821v-30.92019h11.5992c3.5755.00004 6.1765.78084 7.8028 2.34243 1.6261 1.56166 2.4392 3.41945 2.4393 5.57339-.0001 2.95096-1.4431 5.13723-4.3295 6.55884 3.8986 1.14161 5.848 3.64022 5.848 7.49581 0 5.96648-3.8556 8.94972-11.5669 8.94972zm4.1033-17.93177h6.6882c1.5076.00002 2.7409-.10223 3.6994-.30695.9584-.20459 1.7554-.6677 2.3908-1.3893.6354-.72156.9532-1.68546.9532-2.8917 0-1.24927-.2855-2.2455-.8562-2.98863-.5709-.74309-1.3625-1.22236-2.3747-1.43777-1.0124-.21537-2.4556-.32308-4.3295-.3231h-6.1712zm0 14.2808h7.6896c1.0124 0 1.9064-.0485 2.6817-.14541.7756-.0969 1.5401-.35002 2.2942-.75927.7538-.40926 1.33-.98543 1.7285-1.72857.3985-.7431.5977-1.63162.5977-2.66552 0-1.68009-.5385-2.98863-1.6156-3.92561-1.0769-.93697-3.1555-1.40545-6.2357-1.40546h-7.1404z" font-family="BrowalliaUPC" font-size="40" font-weight="400" letter-spacing="0" style="text-align:center;line-height:50%;-inkscape-font-specification:BrowalliaUPC" text-anchor="middle" word-spacing="0"/>
  <path fill="#47d86f" d="M598.33586 298.37501v151.44467L486.0912 449.82V298.37501z" color="#000" overflow="visible" style="marker:none"/>
  <path fill="#10782d" d="m551.5546 380.50222 4.1034 1.0339c-1.7662 6.8927-6.042 10.33904-12.8269 10.33904-4.9756 0-8.6374-1.55623-10.9852-4.66871-2.3478-3.11248-3.5218-6.96269-3.5218-11.55065 0-5.21258 1.4001-9.13819 4.2003-11.77683 2.8001-2.63857 6.2573-3.95787 10.3713-3.9579 6.3973.00003 10.4682 2.99404 12.2131 8.98203l-4.0064.96929c-1.3787-4.30791-4.1356-6.46187-8.2713-6.4619-3.3387.00003-5.8911 1.07701-7.6573 3.23096-1.7662 2.15398-2.6494 5.15877-2.6494 9.01435 0 4.45871.9531 7.69504 2.8593 9.70901 1.9064 2.01396 4.281 3.02093 7.1244 3.02093 4.8894 0 7.9049-2.62783 9.0465-7.88352z" font-family="BrowalliaUPC" font-size="40" font-weight="400" letter-spacing="0" style="text-align:center;line-height:50%;-inkscape-font-specification:BrowalliaUPC" text-anchor="middle" word-spacing="0"/>
  <path fill="#ff9327" d="M598.33586 449.81968v12.05465c0 4.72498-.23774 9.39239-.70196 13.99098-.46423 4.59858-1.15493 9.12833-2.06086 13.57799-.90592 4.44966-2.02706 8.81923-3.35217 13.09744-1.3251 4.27822-2.85417 8.46508-4.57593 12.54933-1.72176 4.08425-3.63622 8.06589-5.73212 11.93366-2.0959 3.86776-4.37324 7.62165-6.82075 11.25041-2.44751 3.62875-5.0652 7.13238-7.84181 10.4996-2.77661 3.36723-5.71213 6.59806-8.79531 9.68124-3.08318 3.08318-6.31401 6.0187-9.68124 8.7953-3.36723 2.77661-6.87085 5.39429-10.49961 7.84181-3.62876 2.44751-7.38265 4.72484-11.25041 6.82074-3.86777 2.09589-7.8494 4.01035-11.93365 5.73211-4.08425 1.72176-8.27111 3.25082-12.54933 4.57592-4.27821 1.3251-8.64777 2.44625-13.09743 3.35217-1.11241.22648-2.22983.43951-3.35208.63891V449.82z" color="#000" overflow="visible" style="marker:none"/>
  <path fill="#884308" d="M530.6336 526.35821v-30.92019h10.6622c2.0248.00004 3.8286.13995 5.4118.42002 1.5831.28004 3.1017.99623 4.5557 2.14858 1.4539 1.1524 2.6385 2.80018 3.5539 4.94335.9155 2.14323 1.3732 4.73337 1.3732 7.77045 0 4.65257-1.1038 8.42201-3.3116 11.30833-2.2079 2.88631-5.9073 4.32946-11.0983 4.32946zm4.1034-3.65097h6.591c2.7141 0 4.7927-.39848 6.2359-1.19544 1.4431-.79697 2.5416-2.12705 3.2956-3.99023.7538-1.86318 1.1306-4.15176 1.1308-6.86577-.0002-1.89548-.1886-3.55403-.5654-4.97567-.377-1.4216-.9424-2.61704-1.6963-3.58636-.754-.96926-1.7125-1.71238-2.8756-2.22935-1.1632-.51693-3.0372-.77541-5.6219-.77543h-6.4941z" font-family="BrowalliaUPC" font-size="40" font-weight="400" letter-spacing="0" style="text-align:center;line-height:50%;-inkscape-font-specification:BrowalliaUPC" text-anchor="middle" word-spacing="0"/>
</svg>